<?xml version="1.0" encoding="iso-8859-1"?>
<!-- Generator: Adobe Illustrator 19.0.0, SVG Export Plug-In . SVG Version: 6.00 Build 0)  -->
<svg version="1.1" id="Layer_1" xmlns="http://www.w3.org/2000/svg" xmlns:xlink="http://www.w3.org/1999/xlink" x="0px" y="0px"
	 viewBox="0 0 512 512" style="enable-background:new 0 0 512 512;" xml:space="preserve">
<g>
	<g>
		<path d="M503.983,97.268c4.428,0,8.017-3.589,8.017-8.017V46.496c0-23.281-18.941-42.221-42.221-42.221H196.142
			c-23.281,0-42.221,18.941-42.221,42.221v17.637H42.221C18.941,64.133,0,83.073,0,106.354v171.023
			c0,23.281,18.941,42.221,42.221,42.221h17.637v77.495c0,6.64,8.021,10.432,13.148,6.159l100.384-83.654h142.467
			c21.445,0,39.194-16.075,41.862-36.806l72.721,60.601c5.129,4.272,13.15,0.483,13.15-6.159v-77.495h26.188
			c23.281,0,42.221-18.941,42.221-42.221v-94.063c0-4.427-3.588-8.017-8.017-8.017c-4.428,0-8.017,3.589-8.017,8.017v94.063
			c0,14.44-11.747,26.188-26.188,26.188h-34.205c-4.428,0-8.017,3.589-8.017,8.017v68.395l-68.941-57.452
			c-0.174-0.144-0.355-0.276-0.537-0.403v-45.279h43.29c4.428,0,8.017-3.589,8.017-8.017s-3.588-8.017-8.017-8.017h-43.29v-52.376
			h9.086c4.428,0,8.017-3.589,8.017-8.017s-3.588-8.017-8.017-8.017h-9.086v-26.188c0-23.281-18.941-42.221-42.221-42.221H169.954
			V46.495c0-14.44,11.748-26.188,26.188-26.188h273.637c14.441,0,26.188,11.748,26.188,26.188V89.25
			C495.967,93.679,499.555,97.268,503.983,97.268z M315.858,80.166c14.441,0,26.188,11.747,26.188,26.188v171.023
			c0,14.44-11.747,26.188-26.188,26.188h-145.37c-1.875,0-3.692,0.657-5.132,1.858l-89.465,74.554v-68.395
			c0-4.427-3.589-8.017-8.017-8.017H42.221c-14.44,0-26.188-11.748-26.188-26.188V106.354c0-14.44,11.748-26.188,26.188-26.188
			H315.858z"/>
	</g>
</g>
<g>
	<g>
		<path d="M435.574,64.133h-76.96c-4.428,0-8.017,3.589-8.017,8.017s3.588,8.017,8.017,8.017h76.96c4.428,0,8.017-3.589,8.017-8.017
			S440.003,64.133,435.574,64.133z"/>
	</g>
</g>
<g>
	<g>
		<path d="M435.574,132.542h-42.756c-4.428,0-8.017,3.589-8.017,8.017c0,4.427,3.588,8.017,8.017,8.017h42.756
			c4.428,0,8.017-3.589,8.017-8.017S440.003,132.542,435.574,132.542z"/>
	</g>
</g>
<g>
	<g>
		<path d="M102.079,166.746c-13.851,0-25.119,11.268-25.119,25.119s11.268,25.119,25.119,25.119s25.119-11.268,25.119-25.119
			C127.198,178.015,115.93,166.746,102.079,166.746z M102.079,200.951c-5.01,0-9.086-4.076-9.086-9.086
			c0-5.01,4.076-9.086,9.086-9.086s9.086,4.076,9.086,9.086C111.165,196.875,107.089,200.951,102.079,200.951z"/>
	</g>
</g>
<g>
	<g>
		<path d="M179.04,166.746c-13.851,0-25.119,11.268-25.119,25.119c0,13.851,11.268,25.119,25.119,25.119
			s25.119-11.268,25.119-25.119C204.159,178.015,192.89,166.746,179.04,166.746z M179.04,200.951c-5.01,0-9.086-4.076-9.086-9.086
			c0-5.01,4.076-9.086,9.086-9.086s9.086,4.076,9.086,9.086C188.125,196.875,184.05,200.951,179.04,200.951z"/>
	</g>
</g>
<g>
	<g>
		<path d="M256,166.746c-13.851,0-25.119,11.268-25.119,25.119c0,13.851,11.268,25.119,25.119,25.119s25.119-11.268,25.119-25.119
			C281.119,178.015,269.851,166.746,256,166.746z M256,200.951c-5.01,0-9.086-4.076-9.086-9.086c0-5.01,4.076-9.086,9.086-9.086
			s9.086,4.076,9.086,9.086C265.086,196.875,261.01,200.951,256,200.951z"/>
	</g>
</g>
<g>
	<g>
		<path d="M183.315,466.039h-39.015v-64.668c0-11.493-9.351-20.843-20.843-20.843s-20.843,9.351-20.843,20.843v85.511
			c0,11.493,9.351,20.843,20.843,20.843h59.858c11.493,0,20.843-9.351,20.843-20.843
			C204.159,475.389,194.808,466.039,183.315,466.039z M183.315,491.692h-59.858c-2.652,0-4.81-2.158-4.81-4.81v-85.511
			c0-2.652,2.158-4.81,4.81-4.81s4.81,2.158,4.81,4.81v72.685c0,4.427,3.589,8.017,8.017,8.017h47.031c2.652,0,4.81,2.158,4.81,4.81
			S185.967,491.692,183.315,491.692z"/>
	</g>
</g>
<g>
	<g>
		<path d="M230.347,380.527c-11.493,0-20.843,9.351-20.843,20.843v85.511c0,11.493,9.351,20.843,20.843,20.843
			s20.843-9.351,20.843-20.843v-85.511C251.19,389.878,241.839,380.527,230.347,380.527z M235.157,486.882
			c0,2.652-2.158,4.81-4.81,4.81s-4.81-2.158-4.81-4.81v-85.511c0-2.652,2.158-4.81,4.81-4.81s4.81,2.158,4.81,4.81V486.882z"/>
	</g>
</g>
<g>
	<g>
		<path d="M357.804,382.018c-10.667-4.266-22.825,0.942-27.094,11.611l-14.851,37.13l-14.852-37.13
			c-4.268-10.667-16.425-15.873-27.094-11.611c-10.538,4.215-15.838,16.53-11.611,27.093l34.205,85.511
			c3.184,7.96,10.78,13.102,19.352,13.102s16.169-5.143,19.352-13.102l34.203-85.511
			C373.641,398.55,368.342,386.234,357.804,382.018z M354.529,403.157l-34.205,85.511c-1.579,3.946-7.352,3.947-8.931,0
			l-34.206-85.511c-1.029-2.574,0.399-5.547,3.029-6.376c2.361-0.744,4.985,0.51,5.902,2.805l22.295,55.739
			c2.632,6.575,12.255,6.575,14.888,0l22.294-55.737c0.872-2.179,3.277-3.43,5.561-2.896
			C353.979,397.349,355.61,400.457,354.529,403.157z"/>
	</g>
</g>
<g>
	<g>
		<path d="M448.401,466.039h-30.463v-1.069h13.361c11.493,0,20.843-9.351,20.843-20.843s-9.351-20.843-20.843-20.843h-13.361v-1.069
			h30.463c11.493,0,20.843-9.351,20.843-20.843s-9.351-20.843-20.843-20.843h-51.307c-11.493,0-20.843,9.351-20.843,20.843v85.511
			c0,11.493,9.351,20.843,20.843,20.843h51.307c11.493,0,20.843-9.351,20.843-20.843
			C469.244,475.389,459.894,466.039,448.401,466.039z M448.401,491.692h-51.307c-2.652,0-4.81-2.158-4.81-4.81v-85.511
			c0-2.652,2.158-4.81,4.81-4.81h51.307c2.652,0,4.81,2.158,4.81,4.81s-2.158,4.81-4.81,4.81h-38.48
			c-4.428,0-8.017,3.589-8.017,8.017V431.3c0,4.428,3.588,8.017,8.017,8.017h21.378c2.652,0,4.81,2.158,4.81,4.81
			s-2.158,4.81-4.81,4.81h-21.378c-4.428,0-8.017,3.589-8.017,8.017v17.102c0,4.427,3.588,8.017,8.017,8.017h38.48
			c2.652,0,4.81,2.158,4.81,4.81S451.053,491.692,448.401,491.692z"/>
	</g>
</g>
<g>
</g>
<g>
</g>
<g>
</g>
<g>
</g>
<g>
</g>
<g>
</g>
<g>
</g>
<g>
</g>
<g>
</g>
<g>
</g>
<g>
</g>
<g>
</g>
<g>
</g>
<g>
</g>
<g>
</g>
</svg>
