<?xml version="1.0" encoding="iso-8859-1"?>
<!-- Generator: Adobe Illustrator 16.0.0, SVG Export Plug-In . SVG Version: 6.00 Build 0)  -->
<!DOCTYPE svg PUBLIC "-//W3C//DTD SVG 1.1//EN" "http://www.w3.org/Graphics/SVG/1.1/DTD/svg11.dtd">
<svg version="1.1" id="Capa_1" xmlns="http://www.w3.org/2000/svg" xmlns:xlink="http://www.w3.org/1999/xlink" x="0px" y="0px"
	 width="611.997px" height="611.998px" viewBox="0 0 611.997 611.998" style="enable-background:new 0 0 611.997 611.998;"
	 xml:space="preserve">
<g>
	<g id="action">
		<g>
			<path d="M0,548.213c0,23.387,19.289,42.405,42.988,42.405h501.515c23.698,0,42.987-19.019,42.987-42.405v-254.47H0V548.213z
				 M28.663,322.023h530.179v56.544H28.663V322.023z M28.663,406.846h530.179v141.367c0,7.796-6.43,14.141-14.325,14.141H42.988
				c-7.895,0-14.325-6.345-14.325-14.141V406.846z M579.553,144.183L93.401,22.673c-3.442-0.854-6.984-1.295-10.526-1.295
				c-19.702,0-36.857,13.144-41.693,31.992l-17.596,68.521l569.496,142.335l17.596-68.507
				C616.495,173.045,602.54,149.93,579.553,144.183z M58.394,101.422l10.555-41.11C70.826,53.015,78.82,48.25,86.36,50.07
				l42.859,10.711l25.122,64.61L58.394,101.422z M188.324,133.898l-25.122-64.61l122.335,30.57l25.122,64.609L188.324,133.898z
				 M344.643,172.974l-25.122-64.61l122.335,30.569l25.121,64.61L344.643,172.974z M582.896,188.764l-10.555,41.11l-71.366-17.838
				l-25.121-64.61l96.658,24.154C580.179,173.5,584.845,181.21,582.896,188.764z"/>
		</g>
	</g>
</g>
<g>
</g>
<g>
</g>
<g>
</g>
<g>
</g>
<g>
</g>
<g>
</g>
<g>
</g>
<g>
</g>
<g>
</g>
<g>
</g>
<g>
</g>
<g>
</g>
<g>
</g>
<g>
</g>
<g>
</g>
</svg>
