<?xml version="1.0" encoding="iso-8859-1"?>
<!-- Generator: Adobe Illustrator 18.0.0, SVG Export Plug-In . SVG Version: 6.00 Build 0)  -->
<!DOCTYPE svg PUBLIC "-//W3C//DTD SVG 1.1//EN" "http://www.w3.org/Graphics/SVG/1.1/DTD/svg11.dtd">
<svg version="1.1" id="Capa_1" xmlns="http://www.w3.org/2000/svg" xmlns:xlink="http://www.w3.org/1999/xlink" x="0px" y="0px"
	 viewBox="0 0 226.743 226.743" style="enable-background:new 0 0 226.743 226.743;" xml:space="preserve">
<path d="M222.303,147.985V15.636C222.303,7.014,215.289,0,206.667,0H20.078C11.455,0,4.44,7.014,4.44,15.636l0.001,211.107
	l58.018-63.122h144.208C215.289,163.621,222.303,156.607,222.303,147.985z M55.872,148.621l-36.431,39.636L19.44,15.636
	c0-0.351,0.287-0.636,0.639-0.636h186.589c0.351,0,0.636,0.286,0.636,0.636v132.349c0,0.351-0.285,0.636-0.636,0.636H55.872z
	 M138.156,39.403h-16.679v17.625h-16.21V39.403H88.588v17.625H70.964v16.677h17.624v16.21H70.964v16.679h17.624v17.624h16.679
	v-17.624h16.21v17.624h16.679v-17.624h17.623V89.915h-17.623v-16.21h17.623V57.028h-17.623V39.403z M121.477,89.915h-16.21v-16.21
	h16.21V89.915z"/>
<g>
</g>
<g>
</g>
<g>
</g>
<g>
</g>
<g>
</g>
<g>
</g>
<g>
</g>
<g>
</g>
<g>
</g>
<g>
</g>
<g>
</g>
<g>
</g>
<g>
</g>
<g>
</g>
<g>
</g>
</svg>
